# 300.2007.1080p.BluRay.REMUX.VC-1.TrueHD.5.1-EPSiLON

```text
General
Unique ID                                : 183429384729103847291038472910384729210
Complete name                            : 300.2007.1080p.BluRay.REMUX.VC-1.TrueHD.5.1-EPSiLON.mkv
Format                                   : Matroska
Format version                           : Version 4
File size                                : 25.4 GiB
Duration                                 : 1 h 56 min
Overall bit rate mode                    : Variable
Overall bit rate                         : 31.2 Mb/s
Movie name                               : 300 (2007) Remux
Encoded date                             : UTC 2026-06-24 14:22:45
Writing application                      : mkvmerge v84.0 ('The Warrior') 64-bit
Writing library                          : libebml v1.4.5 + libmatroska v1.7.1

Video
ID                                       : 1
Format                                   : VC-1
Format profile                           : Advanced@L3
Codec ID                                 : V_MS/VFW/FOURCC / WVC1
Duration                                 : 1 h 56 min
Bit rate mode                            : Variable
Bit rate                                 : 16.8 Mb/s
Width                                    : 1920 pixels
Height                                   : 1080 pixels
Display aspect ratio                     : 16:9
Frame rate mode                          : Constant
Frame rate                               : 23.976 (24000/1001) FPS
Color space                              : YUV
Chroma subsampling                       : 4:2:0
Bit depth                                : 8 bits
Scan type                                : Progressive
Compression mode                         : Lossy
Bits/(Pixel*Frame)                       : 0.338
Stream size                              : 13.7 GiB (54%)
Language                                 : English
Default                                  : Yes
Forced                                   : No

Audio #1
ID                                       : 2
Format                                   : PCM
Format settings                          : Little / Signed
Codec ID                                 : A_PCM/INT/LIT
Duration                                 : 1 h 56 min
Bit rate mode                            : Constant
Bit rate                                 : 4 608 kb/s
Channel(s)                               : 6 channels
Channel layout                           : L R C LFE Ls Rs
Sampling rate                            : 48.0 kHz
Frame rate                               : 30.000 FPS (1600 spf)
Bit depth                                : 16 bits
Stream size                              : 3.75 GiB (15%)
Language                                 : English
Default                                  : Yes
Forced                                   : No

Audio #2
ID                                       : 3
Format                                   : MLP FBA
Format/Info                              : Meridian Lossless Packing FBA
Commercial name                          : Dolby TrueHD
Codec ID                                 : A_MLP
Duration                                 : 1 h 56 min
Bit rate mode                            : Variable
Bit rate                                 : 1 842 kb/s
Peak bit rate                            : 3 124 kb/s
Channel(s)                               : 6 channels
Channel layout                           : L R C LFE Ls Rs
Sampling rate                            : 48.0 kHz
Frame rate                               : 1 200.000 FPS (40 spf)
Bit depth                                : 16 bits
Compression mode                         : Lossless
Stream size                              : 1.50 GiB (6%)
Language                                 : English
Default                                  : No
Forced                                   : No

Audio #3
ID                                       : 4
Format                                   : AC-3
Format/Info                              : Audio Coding 3
Commercial name                          : Dolby Digital
Codec ID                                 : A_AC3
Duration                                 : 1 h 56 min
Bit rate mode                            : Constant
Bit rate                                 : 640 kb/s
Channel(s)                               : 6 channels
Channel layout                           : L R C LFE Ls Rs
Sampling rate                            : 48.0 kHz
Bit depth                                : 16 bits
Compression mode                         : Lossy
Stream size                              : 533 MiB (2%)
Language                                 : English
Default                                  : No
Forced                                   : No

Audio #4
ID                                       : 5
Format                                   : AC-3
Format/Info                              : Audio Coding 3
Commercial name                          : Dolby Digital
Codec ID                                 : A_AC3
Duration                                 : 1 h 56 min
Bit rate mode                            : Constant
Bit rate                                 : 640 kb/s
Channel(s)                               : 6 channels
Channel layout                           : L R C LFE Ls Rs
Sampling rate                            : 48.0 kHz
Bit depth                                : 16 bits
Compression mode                         : Lossy
Stream size                              : 533 MiB (2%)
Language                                 : French
Default                                  : No
Forced                                   : No

Audio #5
ID                                       : 6
Format                                   : AC-3
Format/Info                              : Audio Coding 3
Commercial name                          : Dolby Digital
Codec ID                                 : A_AC3
Duration                                 : 1 h 56 min
Bit rate mode                            : Constant
Bit rate                                 : 640 kb/s
Channel(s)                               : 6 channels
Channel layout                           : L R C LFE Ls Rs
Sampling rate                            : 48.0 kHz
Bit depth                                : 16 bits
Compression mode                         : Lossy
Stream size                              : 533 MiB (2%)
Language                                 : Spanish
Default                                  : No
Forced                                   : No

Text #1
ID                                       : 7
Format                                   : PGS
Muxing mode                              : zlib
Codec ID                                 : S_HDMV/PGS
Codec ID/Info                            : Picture based subtitle format used on BDs
Duration                                 : 1 h 51 min
Bit rate                                 : 31.4 kb/s
Count of elements                        : 2048
Stream size                              : 25.1 MiB (0%)
Language                                 : English (SDH)
Default                                  : Yes
Forced                                   : No

Text #2
ID                                       : 8
Format                                   : PGS
Muxing mode                              : zlib
Codec ID                                 : S_HDMV/PGS
Codec ID/Info                            : Picture based subtitle format used on BDs
Duration                                 : 1 h 48 min
Bit rate                                 : 24.2 kb/s
Count of elements                        : 1612
Stream size                              : 18.8 MiB (0%)
Language                                 : French
Default                                  : No
Forced                                   : No

Text #3
ID                                       : 9
Format                                   : PGS
Muxing mode                              : zlib
Codec ID                                 : S_HDMV/PGS
Codec ID/Info                            : Picture based subtitle format used on BDs
Duration                                 : 1 h 49 min
Bit rate                                 : 25.8 kb/s
Count of elements                        : 1722
Stream size                              : 20.1 MiB (0%)
Language                                 : Spanish
Default                                  : No
Forced                                   : No
```
